<?xml version="1.0" encoding="utf-8"?>
<!DOCTYPE svg PUBLIC "-//W3C//DTD SVG 20010904//EN" "http://www.w3.org/TR/2001/REC-SVG-20010904/DTD/svg10.dtd">
<svg version="1.0" width="617.25pt" height="288.75pt" viewBox="0 0 617.25 288.75" preserveAspectRatio="xMidYMid meet" xmlns="http://www.w3.org/2000/svg">
  <g transform="translate(0,288.75)scale(.075,.075)">
    <path id="path1" d="M 3904 -3775 c -82 18 -137 47 -202 108 -150 143 -183 339 -87 527 51 101 175 197 277 215 l 38 7 0 149 0 148 -38 10 c -60 17 -113 49 -169 103 l -52 51 -298 -173 c -164 -95 -304 -178 -311 -185 -10 -9 -9 -21 9 -61 27 -61 37 -213 20 -295 -54 -259 -330 -439 -591 -385 -191 40 -341 175 -397 356 -27 89 -22 221 10 311 75 203 243 327 458 337 136 6 256 -32 343 -109 20 -17 42 -29 49 -27 8 2 157 86 330 187 l 316 184 -6 62 c -5 54 4 131 22 176 5 13 -28 34 -157 99 -90 46 -191 98 -225 117 l -62 34 -45 -35 c -73 -56 -147 -78 -241 -74 -98 4 -172 35 -245 104 -116 108 -148 288 -78 432 35 72 122 154 193 182 84 34 206 34 290 0 71 -28 158 -110 193 -183 37 -75 45 -189 21 -286 -3 -9 70 -52 216 -127 121 -63 223 -114 227 -114 4 0 28 16 53 35 25 18 72 44 105 56 l 60 22 0 338 0 339 -28 6 c -109 24 -197 71 -272 145 -109 107 -159 227 -160 380 0 114 21 194 75 284 46 76 84 116 159 168 93 63 181 90 301 90 156 1 277 -48 385 -156 205 -205 212 -533 16 -744 -81 -88 -174 -141 -289 -167 l -27 -6 2 -342 3 -341 42 -12 c 24 -7 65 -27 92 -44 l 48 -31 207 132 206 133 -6 60 c -13 127 35 255 130 350 102 102 247 151 375 126 228 -43 383 -235 369 -458 -9 -134 -68 -246 -173 -325 -83 -63 -144 -82 -265 -82 -100 -1 -108 1 -181 35 -52 25 -94 55 -133 94 -53 54 -57 56 -79 43 -12 -8 -97 -63 -189 -122 l -166 -107 19 -54 c 10 -30 22 -85 27 -122 l 7 -67 183 -82 c 101 -44 210 -93 242 -108 33 -14 63 -26 68 -26 5 0 21 14 38 31 160 172 465 204 669 71 105 -68 174 -155 221 -278 36 -95 39 -247 5 -344 -59 -170 -178 -289 -344 -345 -92 -30 -231 -34 -318 -9 -293 86 -465 400 -370 680 13 38 15 56 7 62 -6 5 -112 53 -235 107 l -224 99 -15 -24 c -46 -72 -158 -155 -234 -174 l -28 -6 0 -150 0 -150 28 -6 c 102 -24 225 -125 274 -226 60 -122 60 -275 2 -390 -34 -67 -121 -158 -184 -192 -51 -28 -162 -56 -215 -55 -17 0 -58 7 -91 14 z m -939 1996 c 55 14 122 70 146 123 65 144 -42 308 -201 308 -122 0 -220 -96 -220 -217 0 -66 27 -123 80 -167 60 -52 119 -66 195 -47 z " />
  </g>
</svg>